<svg width="24" height="25" viewBox="0 0 24 25" fill="none" xmlns="http://www.w3.org/2000/svg"><mask id="mask0_4582_194" mask-type="alpha" maskUnits="userSpaceOnUse" x="0" y="0" width="24" height="25"><path fill-rule="evenodd" clip-rule="evenodd" d="M12 4C9.74566 4 7.58365 4.89553 5.98959 6.48959C4.39553 8.08365 3.5 10.2457 3.5 12.5C3.5 13.6162 3.71986 14.7215 4.14702 15.7528C4.57419 16.7841 5.20029 17.7211 5.98959 18.5104C6.77889 19.2997 7.71592 19.9258 8.74719 20.353C9.77846 20.7801 10.8838 21 12 21C13.1162 21 14.2215 20.7801 15.2528 20.353C16.2841 19.9258 17.2211 19.2997 18.0104 18.5104C18.7997 17.7211 19.4258 16.7841 19.853 15.7528C20.2801 14.7215 20.5 13.6162 20.5 12.5C20.5 10.2457 19.6045 8.08365 18.0104 6.48959C16.4163 4.89553 14.2543 4 12 4ZM5.28249 5.78249C7.06408 4.00089 9.48044 3 12 3C14.5196 3 16.9359 4.00089 18.7175 5.78249C20.4991 7.56408 21.5 9.98044 21.5 12.5C21.5 13.7476 21.2543 14.9829 20.7769 16.1355C20.2994 17.2881 19.5997 18.3354 18.7175 19.2175C17.8354 20.0997 16.7881 20.7994 15.6355 21.2769C14.4829 21.7543 13.2476 22 12 22C10.7524 22 9.5171 21.7543 8.36451 21.2769C7.21191 20.7994 6.16464 20.0997 5.28249 19.2175C4.40033 18.3354 3.70056 17.2881 3.22314 16.1355C2.74572 14.9829 2.5 13.7476 2.5 12.5C2.5 9.98044 3.50089 7.56408 5.28249 5.78249ZM12 9C12.2761 9 12.5 9.22386 12.5 9.5V12H15C15.2761 12 15.5 12.2239 15.5 12.5C15.5 12.7761 15.2761 13 15 13H12.5V15.5C12.5 15.7761 12.2761 16 12 16C11.7239 16 11.5 15.7761 11.5 15.5V13H9C8.72386 13 8.5 12.7761 8.5 12.5C8.5 12.2239 8.72386 12 9 12H11.5V9.5C11.5 9.22386 11.7239 9 12 9Z" fill="#0C172F"></path></mask><g mask="url(#mask0_4582_194)"><rect y="0.5" width="24" height="24" fill="#242E44"></rect></g></svg>