
<svg width="24" height="24" viewBox="0 0 24 24" fill="none" xmlns="http://www.w3.org/2000/svg"><path fill-rule="evenodd" clip-rule="evenodd" d="M8 4.5V6.5C8 6.77614 8.22386 7 8.5 7C8.77614 7 9 6.77614 9 6.5V4.5C9 4.22386 8.77614 4 8.5 4C8.22386 4 8 4.22386 8 4.5ZM7 6.5C7 7.32843 7.67157 8 8.5 8C9.32843 8 10 7.32843 10 6.5L10 6H14L14 6.5C14 7.32843 14.6716 8 15.5 8C16.3284 8 17 7.32843 17 6.5L17 6H18.5C19.3284 6 20 6.67157 20 7.5V10H4L4 7.5C4 6.67157 4.67157 6 5.5 6L7 6L7 6.5ZM17 5H18.5C19.8807 5 21 6.11929 21 7.5V18.5C21 19.8807 19.8807 21 18.5 21H5.5C4.11929 21 3 19.8807 3 18.5V7.5C3 6.11929 4.11929 5 5.5 5H7L7 4.5C7 3.67157 7.67157 3 8.5 3C9.32843 3 10 3.67157 10 4.5L10 5L14 5L14 4.5C14 3.67157 14.6716 3 15.5 3C16.3284 3 17 3.67157 17 4.5L17 5ZM4 11L4 18.5C4 19.3284 4.67157 20 5.5 20H18.5C19.3284 20 20 19.3284 20 18.5V11H4ZM15.5 7C15.2239 7 15 6.77614 15 6.5V4.5C15 4.22386 15.2239 4 15.5 4C15.7761 4 16 4.22386 16 4.5V6.5C16 6.77614 15.7761 7 15.5 7Z" fill="#0C172F"></path></svg>
