<svg width="18" height="18" viewBox="0 0 24 25" fill="none" xmlns="http://www.w3.org/2000/svg" class="css-19z6wwy"><path fill-rule="evenodd" clip-rule="evenodd" d="M8.93934 3.4391C9.22064 3.15779 9.60218 2.99976 10 2.99976H14C14.3978 2.99976 14.7794 3.15779 15.0607 3.4391C15.342 3.7204 15.5 4.10193 15.5 4.49976V6.99976H20C20.2761 6.99976 20.5 7.22361 20.5 7.49976C20.5 7.7759 20.2761 7.99976 20 7.99976H19.4656L18.6317 19.6773C18.5868 20.308 18.3046 20.8983 17.8419 21.3292C17.3792 21.7602 16.7703 21.9998 16.138 21.9998H7.86201C7.22969 21.9998 6.62085 21.7602 6.15812 21.3292C5.69542 20.8983 5.41319 20.3081 5.36827 19.6774C5.36827 19.6773 5.36827 19.6774 5.36827 19.6774L4.53443 7.99976H4C3.72386 7.99976 3.5 7.7759 3.5 7.49976C3.5 7.22361 3.72386 6.99976 4 6.99976H8.5V4.49976C8.5 4.10193 8.65804 3.7204 8.93934 3.4391ZM9.5 6.99976H14.5V4.49976C14.5 4.36715 14.4473 4.23997 14.3536 4.1462C14.2598 4.05243 14.1326 3.99976 14 3.99976H10C9.86739 3.99976 9.74021 4.05243 9.64645 4.1462C9.55268 4.23997 9.5 4.36715 9.5 4.49976V6.99976ZM5.53698 7.99976L6.36573 19.6061C6.39267 19.9846 6.56202 20.3389 6.83965 20.5974C7.11729 20.856 7.48259 20.9998 7.86199 20.9998H16.138C16.5174 20.9998 16.8827 20.856 17.1603 20.5974C17.438 20.3389 17.6073 19.9847 17.6343 19.6063L18.463 7.99976H5.53698ZM10 10.9998C10.2761 10.9998 10.5 11.2236 10.5 11.4998V17.4998C10.5 17.7759 10.2761 17.9998 10 17.9998C9.72386 17.9998 9.5 17.7759 9.5 17.4998V11.4998C9.5 11.2236 9.72386 10.9998 10 10.9998ZM14 10.9998C14.2761 10.9998 14.5 11.2236 14.5 11.4998V17.4998C14.5 17.7759 14.2761 17.9998 14 17.9998C13.7239 17.9998 13.5 17.7759 13.5 17.4998V11.4998C13.5 11.2236 13.7239 10.9998 14 10.9998Z" fill="#9EA2AC"></path></svg>