<svg xmlns="http://www.w3.org/2000/svg" width="24" height="24" viewBox="0 0 24 24" fill="none"><path fill-rule="evenodd" clip-rule="evenodd" d="M5.3335 8.66667C5.3335 8.29848 5.63197 8 6.00016 8L18.0002 8C18.3684 8 18.6668 8.29848 18.6668 8.66667C18.6668 9.03486 18.3684 9.33333 18.0002 9.33333L6.00016 9.33333C5.63197 9.33333 5.3335 9.03486 5.3335 8.66667ZM9.3335 15.3333C9.3335 14.9651 9.63197 14.6667 10.0002 14.6667H14.0002C14.3684 14.6667 14.6668 14.9651 14.6668 15.3333C14.6668 15.7015 14.3684 16 14.0002 16H10.0002C9.63197 16 9.3335 15.7015 9.3335 15.3333ZM16.0002 12.6667C16.3684 12.6667 16.6668 12.3682 16.6668 12C16.6668 11.6318 16.3684 11.3333 16.0002 11.3333H8.00016C7.63197 11.3333 7.3335 11.6318 7.3335 12C7.3335 12.3682 7.63197 12.6667 8.00016 12.6667H16.0002Z" fill="#0C172F"></path></svg>