<svg width="38" height="39" viewBox="0 0 38 39" fill="none" xmlns="http://www.w3.org/2000/svg"><path fill-rule="evenodd" clip-rule="evenodd" d="M19 5C15.1297 5 14.6452 5.01615 13.1252 5.0855C11.608 5.15485 10.5716 5.39615 9.6653 5.7486C8.7153 6.1058 7.85365 6.6663 7.14115 7.3921C6.41651 8.10378 5.85567 8.96482 5.49765 9.9153C5.1471 10.8216 4.90485 11.859 4.8355 13.3762C4.7671 14.8952 4.75 15.3787 4.75 19.25C4.75 23.1213 4.76615 23.6048 4.8355 25.1248C4.90485 26.642 5.14615 27.6784 5.4986 28.5847C5.8558 29.5347 6.4163 30.3963 7.1421 31.1088C7.8538 31.8335 8.71483 32.3943 9.6653 32.7523C10.5716 33.1038 11.608 33.3451 13.1252 33.4145C14.6452 33.4838 15.1297 33.5 19 33.5C22.8703 33.5 23.3548 33.4838 24.8748 33.4145C26.392 33.3451 27.4284 33.1038 28.3347 32.7514C29.2847 32.3942 30.1463 31.8337 30.8588 31.1079C31.5835 30.3962 32.1443 29.5352 32.5023 28.5847C32.8538 27.6784 33.0951 26.642 33.1645 25.1248C33.2338 23.6048 33.25 23.1203 33.25 19.25C33.25 15.3797 33.2338 14.8952 33.1645 13.3752C33.0951 11.858 32.8538 10.8216 32.5014 9.9153C32.1436 8.96441 31.5828 8.103 30.8579 7.39115C30.1462 6.66651 29.2852 6.10567 28.3347 5.74765C27.4284 5.3971 26.391 5.15485 24.8738 5.0855C23.3548 5.0171 22.8713 5 19 5ZM19 7.56785C22.8048 7.56785 23.256 7.5821 24.7589 7.6505C26.1478 7.71415 26.9021 7.945 27.4046 8.14165C28.0697 8.3991 28.5447 8.7088 29.0434 9.2066C29.5422 9.70535 29.8509 10.1803 30.1084 10.8453C30.3041 11.3479 30.5358 12.1022 30.5995 13.4911C30.6679 14.994 30.6821 15.4452 30.6821 19.25C30.6821 23.0548 30.6679 23.506 30.5995 25.0089C30.5358 26.3978 30.305 27.1521 30.1084 27.6546C29.8803 28.2736 29.5164 28.8336 29.0434 29.2934C28.5837 29.7665 28.0237 30.1304 27.4046 30.3584C26.9021 30.5541 26.1478 30.7858 24.7589 30.8495C23.256 30.9179 22.8057 30.9321 19 30.9321C15.1943 30.9321 14.744 30.9179 13.2411 30.8495C11.8522 30.7858 11.0979 30.555 10.5953 30.3584C9.97638 30.1303 9.41641 29.7664 8.9566 29.2934C8.48367 28.8336 8.11977 28.2736 7.89165 27.6546C7.69595 27.1521 7.46415 26.3978 7.4005 25.0089C7.3321 23.506 7.31785 23.0548 7.31785 19.25C7.31785 15.4452 7.3321 14.994 7.4005 13.4911C7.46415 12.1022 7.695 11.3479 7.89165 10.8453C8.1491 10.1803 8.4588 9.70535 8.9566 9.2066C9.41634 8.73354 9.97634 8.36963 10.5953 8.14165C11.0979 7.94595 11.8522 7.71415 13.2411 7.6505C14.744 7.5821 15.1952 7.56785 19 7.56785Z" fill="white"></path><path fill-rule="evenodd" clip-rule="evenodd" d="M19.0003 24.0047C18.3759 24.0047 17.7576 23.8817 17.1807 23.6427C16.6038 23.4038 16.0797 23.0535 15.6382 22.612C15.1966 22.1705 14.8464 21.6463 14.6075 21.0695C14.3685 20.4926 14.2455 19.8743 14.2455 19.2499C14.2455 18.6255 14.3685 18.0072 14.6075 17.4303C14.8464 16.8535 15.1966 16.3293 15.6382 15.8878C16.0797 15.4463 16.6038 15.096 17.1807 14.8571C17.7576 14.6181 18.3759 14.4952 19.0003 14.4952C20.2613 14.4952 21.4707 14.9961 22.3624 15.8878C23.2541 16.7795 23.755 17.9889 23.755 19.2499C23.755 20.5109 23.2541 21.7203 22.3624 22.612C21.4707 23.5037 20.2613 24.0047 19.0003 24.0047ZM19.0003 11.9254C17.0577 11.9254 15.1947 12.6971 13.8211 14.0707C12.4475 15.4443 11.6758 17.3073 11.6758 19.2499C11.6758 21.1925 12.4475 23.0555 13.8211 24.4291C15.1947 25.8027 17.0577 26.5744 19.0003 26.5744C20.9429 26.5744 22.8059 25.8027 24.1795 24.4291C25.5531 23.0555 26.3248 21.1925 26.3248 19.2499C26.3248 17.3073 25.5531 15.4443 24.1795 14.0707C22.8059 12.6971 20.9429 11.9254 19.0003 11.9254ZM28.4556 11.7924C28.4556 12.2516 28.2732 12.692 27.9485 13.0167C27.6238 13.3414 27.1834 13.5238 26.7243 13.5238C26.2651 13.5238 25.8247 13.3414 25.5 13.0167C25.1753 12.692 24.9929 12.2516 24.9929 11.7924C24.9929 11.3332 25.1753 10.8928 25.5 10.5681C25.8247 10.2434 26.2651 10.061 26.7243 10.061C27.1834 10.061 27.6238 10.2434 27.9485 10.5681C28.2732 10.8928 28.4556 11.3332 28.4556 11.7924Z" fill="white"></path></svg>