<svg width="32" height="33" viewBox="0 0 32 33" fill="none" xmlns="http://www.w3.org/2000/svg" class="css-cwtdt8"><path fill-rule="evenodd" clip-rule="evenodd" d="M10.6667 9.33919C10.6667 6.39367 13.0545 4.00586 16 4.00586C18.9455 4.00586 21.3333 6.39367 21.3333 9.33919V14.6725C21.3333 17.618 18.9455 20.0059 16 20.0059C13.0545 20.0059 10.6667 17.618 10.6667 14.6725V9.33919ZM20 9.33919V10.6725L16 10.6725C15.6318 10.6725 15.3333 10.971 15.3333 11.3392C15.3333 11.7074 15.6318 12.0059 16 12.0059L20 12.0059V13.3392H16C15.6318 13.3392 15.3333 13.6377 15.3333 14.0059C15.3333 14.3741 15.6318 14.6725 16 14.6725H20C20 16.8817 18.2091 18.6725 16 18.6725C13.7909 18.6725 12 16.8817 12 14.6725V9.33919C12 7.13005 13.7909 5.33919 16 5.33919C17.7416 5.33919 19.2233 6.45227 19.7724 8.00586L16 8.00586C15.6318 8.00586 15.3333 8.30434 15.3333 8.67253C15.3333 9.04072 15.6318 9.33919 16 9.33919H20Z" fill="#0C172F"></path><path fill-rule="evenodd" clip-rule="evenodd" d="M9.33333 14.0059C9.33333 13.6377 9.03486 13.3392 8.66667 13.3392C8.29848 13.3392 8 13.6377 8 14.0059V14.6725C8 18.4002 10.5495 21.5324 14 22.4205V26.6725H10C9.63181 26.6725 9.33333 26.971 9.33333 27.3392C9.33333 27.7074 9.63181 28.0059 10 28.0059H22C22.3682 28.0059 22.6667 27.7074 22.6667 27.3392C22.6667 26.971 22.3682 26.6725 22 26.6725H18V22.4205C21.4505 21.5324 24 18.4002 24 14.6725V14.0059C24 13.6377 23.7015 13.3392 23.3333 13.3392C22.9651 13.3392 22.6667 13.6377 22.6667 14.0059V14.6725C22.6667 18.3544 19.6819 21.3392 16 21.3392C12.3181 21.3392 9.33333 18.3544 9.33333 14.6725V14.0059ZM16.6667 22.6451V26.6725H15.3333V22.6451C15.5532 22.6633 15.7755 22.6725 16 22.6725C16.2245 22.6725 16.4468 22.6633 16.6667 22.6451Z" fill="#0C172F"></path></svg>