
<svg xmlns="http://www.w3.org/2000/svg" viewBox="0 0 width height">
<path d="M12.0889 8.45283L12.2826 7.99189L11.1532 7.51714L11.6279 8.64658L12.0889 8.45283ZM12.0172 8.81784L12.3708 9.1714L12.0172 8.81784ZM6.59942 14.2357L6.24587 13.8821L6.59942 14.2357ZM6.12802 14.2357L6.48157 13.8821L6.12802 14.2357ZM4.85619 12.9638L4.50264 13.3174H4.50264L4.85619 12.9638ZM4.85588 12.4928L4.50184 12.1397L4.85588 12.4928ZM3.50928 11.1449L3.15525 10.7918L3.50928 11.1449ZM3.03756 11.1452L3.39111 10.7917L3.03756 11.1452ZM1.76438 9.87202L1.41083 10.2256L1.76438 9.87202ZM1.76438 9.40062L2.11793 9.75417L1.76438 9.40062ZM7.1822 3.9828L6.82864 3.62925L7.1822 3.9828ZM7.54721 3.91118L7.35346 4.37211L8.4829 4.84686L8.00815 3.71743L7.54721 3.91118ZM7.61883 3.54617L7.97239 3.89972L7.61883 3.54617ZM9.40074 1.76426L9.04719 1.4107V1.4107L9.40074 1.76426ZM9.87215 1.76426L10.2257 1.4107L9.87215 1.76426ZM11.1453 3.03744L10.7918 3.39099L11.1453 3.03744ZM11.145 3.50916L10.7919 3.15513L11.145 3.50916ZM12.4929 4.85575L12.1398 4.50172L12.4929 4.85575ZM12.964 4.85607L13.3175 4.50252V4.50252L12.964 4.85607ZM14.2358 6.12789L13.8822 6.48145L14.2358 6.12789ZM11.6279 8.64658C11.6029 8.58692 11.6138 8.51419 11.6637 8.46429L12.3708 9.1714C12.6181 8.92414 12.6767 8.56107 12.5498 8.25908L11.6279 8.64658ZM11.6637 8.46429L6.24587 13.8821L6.95297 14.5892L12.3708 9.1714L11.6637 8.46429ZM6.24587 13.8821C6.31095 13.817 6.41648 13.817 6.48157 13.8821L5.77446 14.5892C6.0999 14.9147 6.62754 14.9147 6.95297 14.5892L6.24587 13.8821ZM6.48157 13.8821L5.20975 12.6103L4.50264 13.3174L5.77446 14.5892L6.48157 13.8821ZM5.20975 12.6103C5.27477 12.6753 5.27484 12.7807 5.20991 12.8458L4.50184 12.1397C4.17716 12.4652 4.17752 12.9923 4.50264 13.3174L5.20975 12.6103ZM5.20991 12.8458C5.77628 12.2779 5.77719 11.3591 5.20975 10.7917L4.50264 11.4988C4.67881 11.6749 4.67972 11.9613 4.50184 12.1397L5.20991 12.8458ZM5.20975 10.7917C4.6418 10.2237 3.72273 10.2228 3.15525 10.7918L3.86331 11.498C4.0393 11.3215 4.32447 11.3206 4.50264 11.4988L5.20975 10.7917ZM3.15525 10.7918C3.22031 10.7266 3.32596 10.7265 3.39111 10.7917L2.68401 11.4988C3.00975 11.8245 3.53801 11.8241 3.86331 11.498L3.15525 10.7918ZM3.39111 10.7917L2.11793 9.51847L1.41083 10.2256L2.68401 11.4988L3.39111 10.7917ZM2.11793 9.51847C2.18302 9.58356 2.18302 9.68909 2.11793 9.75417L1.41083 9.04707C1.08539 9.3725 1.08539 9.90014 1.41083 10.2256L2.11793 9.51847ZM2.11793 9.75417L7.53575 4.33635L6.82864 3.62925L1.41083 9.04707L2.11793 9.75417ZM7.53575 4.33635C7.48585 4.38625 7.41312 4.39719 7.35346 4.37211L7.74096 3.45024C7.43897 3.3233 7.0759 3.38199 6.82864 3.62925L7.53575 4.33635ZM8.00815 3.71743C8.03322 3.77708 8.02228 3.84982 7.97239 3.89972L7.26528 3.19261C7.01802 3.43987 6.95933 3.80293 7.08628 4.10493L8.00815 3.71743ZM7.97239 3.89972L9.7543 2.11781L9.04719 1.4107L7.26528 3.19261L7.97239 3.89972ZM9.7543 2.11781C9.68921 2.1829 9.58368 2.1829 9.51859 2.11781L10.2257 1.4107C9.90026 1.08527 9.37263 1.08527 9.04719 1.4107L9.7543 2.11781ZM9.51859 2.11781L10.7918 3.39099L11.4989 2.68388L10.2257 1.4107L9.51859 2.11781ZM10.7918 3.39099C10.7266 3.32584 10.7267 3.22019 10.7919 3.15513L11.4981 3.86319C11.8243 3.53789 11.8246 3.00963 11.4989 2.68388L10.7918 3.39099ZM10.7919 3.15513C10.2229 3.72261 10.2238 4.64168 10.7918 5.20963L11.4989 4.50252C11.3207 4.32435 11.3216 4.03918 11.4981 3.86319L10.7919 3.15513ZM10.7918 5.20963C11.3592 5.77707 12.278 5.77616 12.846 5.20979L12.1398 4.50172C11.9614 4.67959 11.6751 4.67869 11.4989 4.50252L10.7918 5.20963ZM12.846 5.20979C12.7808 5.27472 12.6754 5.27465 12.6104 5.20963L13.3175 4.50252C12.9924 4.17739 12.4654 4.17704 12.1398 4.50172L12.846 5.20979ZM12.6104 5.20963L13.8822 6.48145L14.5893 5.77434L13.3175 4.50252L12.6104 5.20963ZM13.8822 6.48145C13.8171 6.41636 13.8171 6.31083 13.8822 6.24574L14.5893 6.95285C14.9148 6.62741 14.9148 6.09978 14.5893 5.77434L13.8822 6.48145ZM13.8822 6.24574L12.1003 8.02765L12.8074 8.73476L14.5893 6.95285L13.8822 6.24574ZM12.1003 8.02765C12.1502 7.97776 12.223 7.96682 12.2826 7.99189L11.8951 8.91376C12.1971 9.0407 12.5602 8.98202 12.8074 8.73476L12.1003 8.02765Z" fill="black"></path>
</svg>
